<?xml version="1.0" encoding="UTF-8"?>
<svg width="25px" height="25px" viewBox="0 0 25 25" version="1.1" xmlns="http://www.w3.org/2000/svg" xmlns:xlink="http://www.w3.org/1999/xlink">
    <!-- Generator: Sketch 47.1 (45422) - http://www.bohemiancoding.com/sketch -->
    <title>menu (1)</title>
    <desc>Created with Sketch.</desc>
    <defs></defs>
    <g id="Page-1" stroke="none" stroke-width="1" fill="none" fill-rule="evenodd">
        <g id="Page1-list-page-Copy-21" transform="translate(-23.000000, -125.000000)" fill-rule="nonzero" fill="#FFFFFF">
            <g id="side-icon" transform="translate(0.000000, 100.000000)">
                <g id="menu-(1)" transform="translate(23.000000, 25.000000)">
                    <path d="M12.5,0 C5.60758929,0 0,5.60758929 0,12.5 C0,19.3924107 5.60758929,25 12.5,25 C19.3924107,25 25,19.3924107 25,12.5 C25,5.60758929 19.3924107,0 12.5,0 Z M12.5,24.1071429 C6.09955357,24.1071429 0.892857143,18.9 0.892857143,12.5 C0.892857143,6.1 6.09955357,0.892857143 12.5,0.892857143 C18.9004464,0.892857143 24.1071429,6.1 24.1071429,12.5 C24.1071429,18.9 18.9004464,24.1071429 12.5,24.1071429 Z" id="Shape"></path>
                    <path d="M7.46428571,7.14285714 L19.5357143,7.14285714 C19.7924643,7.14285714 20,6.94285714 20,6.69642857 C20,6.45 19.7924643,6.25 19.5357143,6.25 L7.46428571,6.25 C7.20753571,6.25 7,6.45 7,6.69642857 C7,6.94285714 7.20753571,7.14285714 7.46428571,7.14285714 Z" id="Shape"></path>
                    <path d="M20.5277778,14.2857143 L4.47222222,14.2857143 C4.21108333,14.2857143 4,14.4857143 4,14.7321429 C4,14.9785714 4.21108333,15.1785714 4.47222222,15.1785714 L20.5277778,15.1785714 C20.7889167,15.1785714 21,14.9785714 21,14.7321429 C21,14.4857143 20.7889167,14.2857143 20.5277778,14.2857143 Z" id="Shape"></path>
                    <path d="M20.5277778,9.82142857 L4.47222222,9.82142857 C4.21108333,9.82142857 4,10.0214286 4,10.2678571 C4,10.5142857 4.21108333,10.7142857 4.47222222,10.7142857 L20.5277778,10.7142857 C20.7889167,10.7142857 21,10.5142857 21,10.2678571 C21,10.0214286 20.7889167,9.82142857 20.5277778,9.82142857 Z" id="Shape"></path>
                    <path d="M19.5357143,17.8571429 L7.46428571,17.8571429 C7.20753571,17.8571429 7,18.0571429 7,18.3035714 C7,18.55 7.20753571,18.75 7.46428571,18.75 L19.5357143,18.75 C19.7924643,18.75 20,18.55 20,18.3035714 C20,18.0571429 19.7924643,17.8571429 19.5357143,17.8571429 Z" id="Shape"></path>
                </g>
            </g>
        </g>
    </g>
</svg>