<?xml version="1.0" encoding="UTF-8"?>
<svg width="512px" height="404px" viewBox="0 0 512 404" version="1.1" xmlns="http://www.w3.org/2000/svg" xmlns:xlink="http://www.w3.org/1999/xlink">
    <!-- Generator: Sketch 52.5 (67469) - http://www.bohemiancoding.com/sketch -->
    <title>Group 17</title>
    <desc>Created with Sketch.</desc>
    <g id="Page-1" stroke="none" stroke-width="1" fill="none" fill-rule="evenodd">
        <g id="camera" fill="#FFFFFF">
            <g id="Group-17">
                <path d="M494.965779,63.756654 C484.745247,53.0494297 470.631179,46.7224335 454.570342,46.7224335 L373.779468,46.7224335 L373.779468,45.7490494 C373.779468,33.581749 368.912548,21.9011407 360.638783,14.1140684 C352.365019,5.84030418 341.171103,0.97338403 329.003802,0.97338403 L182.996198,0.97338403 C170.342205,0.97338403 159.148289,5.84030418 150.874525,14.1140684 C142.60076,22.3878327 137.73384,33.581749 137.73384,45.7490494 L137.73384,46.7224335 L57.4296578,46.7224335 C41.3688213,46.7224335 27.2547529,53.0494297 17.0342205,63.756654 C6.81368821,73.9771863 2.84217094e-14,88.5779468 2.84217094e-14,104.152091 L2.84217094e-14,346.524715 C-6.15983817e-15,362.585551 6.3269962,376.69962 17.0342205,386.920152 C27.2547529,397.140684 41.8555133,403.954373 57.4296578,403.954373 L454.570342,403.954373 C470.631179,403.954373 484.745247,397.627376 494.965779,386.920152 C505.186312,376.69962 512,362.098859 512,346.524715 L512,104.152091 C512,88.0912548 505.673004,73.9771863 494.965779,63.756654 Z M486.692015,346.524715 L486.205323,346.524715 C486.205323,355.285171 482.798479,363.072243 476.958175,368.912548 C471.117871,374.752852 463.330798,378.159696 454.570342,378.159696 L57.4296578,378.159696 C48.6692015,378.159696 40.8821293,374.752852 35.0418251,368.912548 C29.2015209,363.072243 25.7946768,355.285171 25.7946768,346.524715 L25.7946768,104.152091 C25.7946768,95.391635 29.2015209,87.6045627 35.0418251,81.7642586 C40.8821293,75.9239544 48.6692015,72.5171103 57.4296578,72.5171103 L151.361217,72.5171103 C158.661597,72.5171103 164.501901,66.6768061 164.501901,59.3764259 L164.501901,45.2623574 C164.501901,39.9087452 166.448669,35.0418251 169.855513,31.634981 C173.262357,28.2281369 178.129278,26.2813688 183.48289,26.2813688 L329.003802,26.2813688 C334.357414,26.2813688 339.224335,28.2281369 342.631179,31.634981 C346.038023,35.0418251 347.984791,39.9087452 347.984791,45.2623574 L347.984791,59.3764259 C347.984791,66.6768061 353.825095,72.5171103 361.125475,72.5171103 L455.057034,72.5171103 C463.81749,72.5171103 471.604563,75.9239544 477.444867,81.7642586 C483.285171,87.6045627 486.692015,95.391635 486.692015,104.152091 L486.692015,346.524715 Z" id="Shape" fill-rule="nonzero"></path>
                <path d="M256,105.612167 C222.904943,105.612167 192.730038,119.239544 171.315589,140.653992 C149.414449,162.555133 136.273764,192.243346 136.273764,225.338403 C136.273764,258.43346 149.901141,288.608365 171.315589,310.022814 C193.21673,331.923954 222.904943,345.064639 256,345.064639 C289.095057,345.064639 319.269962,331.437262 340.684411,310.022814 C362.585551,288.121673 375.726236,258.43346 375.726236,225.338403 C375.726236,192.243346 362.098859,162.068441 340.684411,140.653992 C319.269962,119.239544 289.095057,105.612167 256,105.612167 Z M322.190114,292.015209 C305.155894,308.562738 281.794677,319.269962 256,319.269962 C230.205323,319.269962 206.844106,308.562738 189.809886,292.015209 C172.775665,274.980989 162.555133,251.619772 162.555133,225.825095 C162.555133,200.030418 173.262357,176.669202 189.809886,159.634981 C206.844106,142.60076 230.205323,132.380228 256,132.380228 C281.794677,132.380228 305.155894,143.087452 322.190114,159.634981 C339.224335,176.669202 349.444867,200.030418 349.444867,225.825095 C349.931559,251.619772 339.224335,274.980989 322.190114,292.015209 Z" id="Shape" fill-rule="nonzero"></path>
                <circle id="Oval" cx="429.262357" cy="128.973384" r="23.8479087"></circle>
            </g>
        </g>
    </g>
</svg>