<?xml version="1.0" encoding="UTF-8"?>
<svg width="294px" height="294px" viewBox="0 0 294 294" version="1.1" xmlns="http://www.w3.org/2000/svg" xmlns:xlink="http://www.w3.org/1999/xlink">
    <!-- Generator: Sketch 52.5 (67469) - http://www.bohemiancoding.com/sketch -->
    <title>Shape</title>
    <desc>Created with Sketch.</desc>
    <g id="Page-1" stroke="none" stroke-width="1" fill="none" fill-rule="evenodd">
        <g id="edit_light" fill="#FFFFFF" fill-rule="nonzero">
            <path d="M268.439127,13.1806635 C250.864909,-4.3935545 222.372721,-4.3935545 204.798502,13.1806635 L26.3922525,191.586914 C25.1695965,192.80957 24.2867835,194.325195 23.8258465,195.989258 L0.36490947,280.688476 C-0.59993453,284.161132 0.38053347,287.879882 2.92740947,290.430663 C5.47819047,292.977538 9.19694047,293.958008 12.6695965,292.997069 L97.3688155,269.532226 C99.0328775,269.071288 100.548502,268.188476 101.771159,266.965819 L280.173502,88.5556635 C297.720377,70.9697265 297.720377,42.5009765 280.173502,24.9150385 L268.439127,13.1806635 Z M48.1813155,198.086913 L194.193033,52.0712885 L241.282877,99.1611325 L95.2672525,245.176758 L48.1813155,198.086913 Z M38.7750655,216.961914 L76.3961595,254.586914 L24.3570965,269.004883 L38.7750655,216.961914 Z M266.032877,74.4150385 L255.427409,85.0205075 L208.333659,37.9267575 L218.943033,27.3212885 C228.704752,17.5595695 244.532877,17.5595695 254.294596,27.3212885 L266.032877,39.0556635 C275.778971,48.8291015 275.778971,64.6455075 266.032877,74.4150385 Z" id="Shape"></path>
        </g>
    </g>
</svg>