<?xml version="1.0" encoding="UTF-8"?>
<svg width="123px" height="123px" viewBox="0 0 123 123" version="1.1" xmlns="http://www.w3.org/2000/svg" xmlns:xlink="http://www.w3.org/1999/xlink">
    <!-- Generator: Sketch 47.1 (45422) - http://www.bohemiancoding.com/sketch -->
    <title>Group 21</title>
    <desc>Created with Sketch.</desc>
    <defs></defs>
    <g id="Page-1" stroke="none" stroke-width="1" fill="none" fill-rule="evenodd">
        <g id="facebook-logo-in-circular-button-outlined-social-symbol" fill-rule="nonzero" fill="#FFFFFF">
            <g id="Group-21">
                <path d="M123,61.5 C123,27.5351176 95.4646814,0 61.5,0 C27.5351176,0 0,27.5351176 0,61.5 C0,95.4646814 27.5351176,123 61.5,123 C95.4646814,123 123,95.4646814 123,61.5 Z M5.59087255,61.5 C5.59087255,30.6213725 30.6213725,5.59087255 61.5,5.59087255 C92.3786275,5.59087255 117.409127,30.6213725 117.409127,61.5 C117.409127,92.3786275 92.3786275,117.409127 61.5,117.409127 C30.6213725,117.409127 5.59087255,92.3786275 5.59087255,61.5 Z" id="Shape"></path>
                <path d="M64.3925238,98 L64.3925238,62.4523998 L76.4266922,62.4523998 L78.3280739,50.6723022 L64.3925238,50.6723022 L64.3925238,44.7654474 C64.3925238,41.6916609 65.426431,38.7577567 69.9529501,38.7577567 L79,38.7577567 L79,27 L66.1559685,27 C55.3568309,27 52.4099784,33.9313161 52.4099784,43.5393142 L52.4099784,50.6668679 L45,50.6668679 L45,62.4523998 L52.4099784,62.4523998 L52.4099784,98 L64.3925238,98 L64.3925238,98 Z" id="Shape"></path>
            </g>
        </g>
    </g>
</svg>