<?xml version="1.0" encoding="UTF-8"?>
<svg width="219px" height="219px" viewBox="0 0 219 219" version="1.1" xmlns="http://www.w3.org/2000/svg" xmlns:xlink="http://www.w3.org/1999/xlink">
    <!-- Generator: Sketch 47.1 (45422) - http://www.bohemiancoding.com/sketch -->
    <title>Group 3</title>
    <desc>Created with Sketch.</desc>
    <defs></defs>
    <g id="Page-1" stroke="none" stroke-width="1" fill="none" fill-rule="evenodd">
        <g id="Page1-list-page-Copy-22" transform="translate(-584.000000, -399.000000)" fill="#8C9AB9">
            <g id="Group-3" transform="translate(584.000000, 399.000000)">
                <circle id="Oval-2" fill-opacity="0.305961277" cx="109.5" cy="109.5" r="109.5"></circle>
                <g id="file" transform="translate(72.000000, 68.000000)" fill-rule="nonzero">
                    <path d="M42.8531563,16 L52,16 L38,2 L38,11.3685882 C38,13.9063397 40.1651765,16 42.8531563,16 Z" id="Shape"></path>
                    <path d="M27.7795985,53.8460086 L11.653442,53.8460086 C10.8370789,53.8460086 10.1690311,53.1781922 10.1690311,52.3607143 C10.1690311,51.5438653 10.8370789,50.8754199 11.653442,50.8754199 L28.7631307,50.8754199 C29.7089555,48.4619738 30.9708932,46.4189079 32.5300901,44.3764709 L11.653442,44.3764709 C10.8370789,44.3764709 10.1690311,43.7086544 10.1690311,42.8911766 C10.1690311,42.0743275 10.8370789,41.4058823 11.653442,41.4058823 L35.3505964,41.4058823 C39.803829,37.5065128 45.7050219,35.0188648 52.1441723,35.0188648 C52.7562874,35.0188648 53.2577946,35.0742018 54,35.1301675 L54,19.8672271 L42.8656619,19.8672271 C38.5607449,19.8672271 35.0721909,16.3394958 35.0721909,12.0502525 L35.0721909,0 L6.60631947,0 C2.93174276,0 0,3.00768972 0,6.70268962 L0,63.3715121 C0,67.066512 2.93174276,70 6.60631947,70 L28.9667501,70 C27.6865872,67.0294111 26.9814606,63.6871844 26.9814606,60.1965539 C26.962607,58.0057133 27.2598662,55.8884456 27.7795985,53.8460086 Z M11.653442,32.121849 L30.4517894,32.121849 C31.2681524,32.121849 31.9362002,32.7902944 31.9362002,33.6077722 C31.9362002,34.4246213 31.2681524,35.0930667 30.4517894,35.0930667 L11.653442,35.0930667 C10.8370789,35.0930667 10.1690311,34.4246213 10.1690311,33.6077722 C10.1690311,32.7902944 10.8370789,32.121849 11.653442,32.121849 Z" id="Shape"></path>
                    <path d="M52.4996813,38 C40.0921767,38 30,48.091682 30,60.5 C30,72.9076803 40.0921767,83 52.4996813,83 C64.9078233,83 75,72.9076803 75,60.5 C75,48.091682 64.9078233,38 52.4996813,38 Z M64.5316065,60.8386 C64.249125,61.1025931 63.8722704,61.2345898 63.5145456,61.2345898 C63.1191991,61.2345898 62.7238526,61.0649709 62.4222415,60.7633555 L54.0249537,51.7257333 L54.0249537,73.227788 C54.0249537,74.0567522 53.3471257,74.7345898 52.5188109,74.7345898 C51.6904961,74.7345898 51.012668,74.0567522 51.012668,73.227788 L51.012668,51.7072411 L42.5777587,60.7448633 C42.0127957,61.3474564 41.0333565,61.3850786 40.4307719,60.8201076 C39.8288249,60.2551367 39.7905656,59.2948136 40.3555285,58.6922204 L51.388885,46.8488734 C51.6713665,46.5478957 52.066713,46.3782768 52.4996813,46.3782768 C52.9332871,46.3782768 53.3095039,46.5478957 53.611115,46.8488734 L64.6444715,58.6922204 C65.1718128,59.3139436 65.1335535,60.2742666 64.5316065,60.8386 Z" id="Shape"></path>
                </g>
            </g>
        </g>
    </g>
</svg>