<?xml version="1.0" encoding="UTF-8"?>
<svg width="112px" height="129px" viewBox="0 0 112 129" version="1.1" xmlns="http://www.w3.org/2000/svg" xmlns:xlink="http://www.w3.org/1999/xlink">
    <!-- Generator: Sketch 52.5 (67469) - http://www.bohemiancoding.com/sketch -->
    <title>Group 15</title>
    <desc>Created with Sketch.</desc>
    <g id="Page-1" stroke="none" stroke-width="1" fill="none" fill-rule="evenodd">
        <g id="Group-15" fill="#CC2A2A">
            <path d="M54.3372486,63 L21.962963,63 C20.8794074,63 20,62.106 20,61 C20,59.894 20.8794074,59 21.962963,59 L61.0882302,59 C58.706642,60.1245593 56.4477869,61.46642 54.3372486,63 Z M41.041787,79 L21.962963,79 C20.8794074,79 20,78.106 20,77 C20,75.894 20.8794074,75 21.962963,75 L43.2159898,75 C42.421923,76.2888383 41.6955373,77.6238231 41.041787,79 Z M37.1054922,94 L21.962963,94 C20.8794074,94 20,93.106 20,92 C20,90.894 20.8794074,90 21.962963,90 L37.5807091,90 C37.3603189,91.3136588 37.2009098,92.6479956 37.1054922,94 Z M92,57.0506204 C90.7208807,56.6346636 89.414819,56.2784305 88.0851064,55.9852125 L88.0851064,31.4666667 L60.6808511,31.4666667 L60.6808511,3.93333333 L3.91489362,3.93333333 L3.91489362,114.066667 L40.6123811,114.066667 C41.2135686,115.416859 41.8838911,116.729472 42.618859,118.000012 L0,118 L0,-3.83693077e-13 L63.4486809,-3.83693077e-13 L92,28.6858 L92,57.0506204 Z M71.037037,43 C72.1205926,43 73,43.894 73,45 C73,46.106 72.1205926,47 71.037037,47 L21.962963,47 C20.8794074,47 20,46.106 20,45 C20,43.894 20.8794074,43 21.962963,43 L71.037037,43 Z M21,32 C19.896,32 19,31.106 19,30 C19,28.894 19.896,28 21,28 L41,28 C42.104,28 43,28.894 43,30 C43,31.106 42.104,32 41,32 L21,32 Z M64.5957447,6.7142 L64.5957447,27.5333333 L85.3172766,27.5333333 L64.5957447,6.7142 Z" id="Combined-Shape"></path>
            <g id="info" transform="translate(78.500000, 95.500000) rotate(180.000000) translate(-78.500000, -95.500000) translate(45.000000, 62.000000)">
                <path d="M33.5,0 C15.0286154,0 0,15.0275846 0,33.5 C0,51.9724154 15.0286154,67 33.5,67 C51.9713846,67 67,51.9724154 67,33.5 C67,15.0275846 51.9713846,0 33.5,0 Z M33.5,62.8769231 C17.3014615,62.8769231 4.12307692,49.6985385 4.12307692,33.5 C4.12307692,17.3014615 17.3014615,4.12307692 33.5,4.12307692 C49.6985385,4.12307692 62.8769231,17.3014615 62.8769231,33.5 C62.8769231,49.6985385 49.6985385,62.8769231 33.5,62.8769231 Z" id="Shape" fill-rule="nonzero"></path>
                <circle id="Oval" cx="33.5" cy="20.5" r="3.5"></circle>
                <path d="M33,28 C31.896,28 31,28.9386667 31,30.0952381 L31,47.9047619 C31,49.0613333 31.896,50 33,50 C34.104,50 35,49.0613333 35,47.9047619 L35,30.0952381 C35,28.937619 34.104,28 33,28 Z" id="Path"></path>
            </g>
        </g>
    </g>
</svg>