<?xml version="1.0" encoding="UTF-8"?>
<svg width="31px" height="29px" viewBox="0 0 31 29" version="1.1" xmlns="http://www.w3.org/2000/svg" xmlns:xlink="http://www.w3.org/1999/xlink">
    <!-- Generator: Sketch 47.1 (45422) - http://www.bohemiancoding.com/sketch -->
    <title>Group 9</title>
    <desc>Created with Sketch.</desc>
    <defs></defs>
    <g id="Page-1" stroke="none" stroke-width="1" fill="none" fill-rule="evenodd" fill-opacity="0.896540987">
        <g id="Page1-list-page-Copy-12" transform="translate(-32.000000, -774.000000)" fill-rule="nonzero" fill="#FFFFFF">
            <g id="sideicon3-copy-2" transform="translate(0.000000, 752.000000)">
                <g id="logout-(1)" transform="translate(32.000000, 22.000000)">
                    <g id="Group-9">
                        <path d="M30.6302093,13.5422725 L27.4325894,10.9319764 C26.8532204,10.459079 26.0524584,10.9406274 26.0524584,11.7605775 L26.0524584,13.3570876 L10.6991203,13.3570876 C10.2155929,13.3570876 9.82352941,13.8109934 9.82352941,14.3709412 C9.82352941,14.930889 10.2155929,15.3847271 10.6991203,15.3847271 L26.0523416,15.3847271 L26.0523416,16.9811697 C26.0523416,17.8065266 26.8573646,18.2790861 27.4324143,17.8097708 L30.6300342,15.1994746 C31.1183478,14.8011243 31.1282122,13.9496793 30.6302093,13.5422725 Z" id="Shape"></path>
                        <path d="M26.538143,20.4785041 C26.0961807,20.2211573 25.5303654,20.3731074 25.2745834,20.8182814 C23.1023162,24.5994058 19.041676,27.1378043 14.4014111,27.1378043 C7.48031495,27.1378043 1.84953418,21.4684764 1.84953418,14.5 C1.84953418,7.53152357 7.48031495,1.86219569 14.4014111,1.86219569 C19.0447584,1.86219569 23.1035492,4.40295287 25.2745217,8.18159441 C25.5302421,8.62676849 26.0961807,8.77865652 26.5380814,8.52137173 C26.9801669,8.26390072 27.1312072,7.69427405 26.8755484,7.24916204 C24.3771577,2.90058347 19.7110001,0 14.4014111,0 C6.44171283,0 0,6.48512862 0,14.5 C0,22.5141886 6.44103469,29 14.4014111,29 C19.7132811,29 24.3782673,26.0973682 26.8756101,21.7507138 C27.1312689,21.3056018 26.9802286,20.7360372 26.538143,20.4785041 Z" id="Shape"></path>
                    </g>
                </g>
            </g>
        </g>
    </g>
</svg>