<?xml version="1.0" encoding="UTF-8"?>
<svg width="512px" height="512px" viewBox="0 0 512 512" version="1.1" xmlns="http://www.w3.org/2000/svg" xmlns:xlink="http://www.w3.org/1999/xlink">
    <!-- Generator: Sketch 47.1 (45422) - http://www.bohemiancoding.com/sketch -->
    <title>Group 19</title>
    <desc>Created with Sketch.</desc>
    <defs></defs>
    <g id="Page-1" stroke="none" stroke-width="1" fill="none" fill-rule="evenodd">
        <g id="Group-19" fill-rule="nonzero">
            <g id="lock" transform="translate(209.000000, 176.000000)" fill="#012162">
                <path d="M91.3888073,46.875 L83.555474,46.875 L83.555474,36.458252 C83.555474,16.3549805 67.157125,0 47,0 C26.842875,0 10.444526,16.3549805 10.444526,36.458252 L10.444526,46.875 L2.61119271,46.875 C1.16790104,46.875 0,48.0397949 0,49.479248 L0,114.583496 C0,120.328369 4.68408854,125 10.444526,125 L83.5557187,125 C89.3159115,125 94,120.328369 94,114.583252 L94,49.479248 C94,48.0397949 92.832099,46.875 91.3888073,46.875 Z M54.8181562,101.275146 C54.8996719,102.01001 54.6627135,102.747559 54.1679896,103.299561 C53.6732656,103.851318 52.964349,104.166748 52.2223854,104.166748 L41.7778594,104.166748 C41.0358958,104.166748 40.3269792,103.851318 39.8322552,103.299561 C39.3375313,102.747803 39.1003281,102.010254 39.1820885,101.275146 L40.8292917,86.5021973 C38.1544531,84.5617676 36.5557188,81.4921875 36.5557188,78.125 C36.5557188,72.380127 41.2398073,67.708252 47.0002448,67.708252 C52.7606823,67.708252 57.4447708,72.3798828 57.4447708,78.125 C57.4447708,81.4921875 55.8460365,84.5617676 53.1711979,86.5021973 L54.8181562,101.275146 Z M67.8888073,46.875 L26.1111927,46.875 L26.1111927,36.458252 C26.1111927,24.9709473 35.4820625,15.625 47,15.625 C58.5179375,15.625 67.8888073,24.9709473 67.8888073,36.458252 L67.8888073,46.875 L67.8888073,46.875 Z" id="Shape"></path>
            </g>
            <g id="rotate" fill="#FF8700">
                <path d="M256,512 C114.835938,512 0,397.164062 0,256 C0,114.835938 114.835938,0 256,0 C357.867188,0 441.921875,60.800781 499.070312,175.765625 C501.695312,181.035156 499.542969,187.457031 494.273438,190.078125 C488.980469,192.683594 482.582031,190.527344 479.980469,185.257812 C442.792969,110.484375 373.78125,21.332031 256,21.332031 C126.613281,21.332031 21.332031,126.613281 21.332031,256 C21.332031,385.386719 126.613281,490.667969 256,490.667969 C385.386719,490.667969 490.667969,385.386719 490.667969,256 C490.667969,250.113281 495.445312,245.332031 501.332031,245.332031 C507.222656,245.332031 512,250.113281 512,256 C512,397.164062 397.164062,512 256,512 Z" id="Shape"></path>
                <path d="M501.332031,192 L416,192 C410.113281,192 405.332031,187.222656 405.332031,181.332031 C405.332031,175.445312 410.113281,170.667969 416,170.667969 L490.667969,170.667969 L490.667969,96.894531 C490.667969,91.007812 495.445312,86.230469 501.332031,86.230469 C507.222656,86.230469 512,91.007812 512,96.894531 L512,181.332031 C512,187.222656 507.222656,192 501.332031,192 L501.332031,192 Z" id="Shape"></path>
                <path d="M256,405.332031 C204.949219,405.332031 157.953125,379.5625 130.304688,336.425781 C127.125,331.476562 128.554688,324.863281 133.523438,321.707031 C138.496094,318.507812 145.089844,319.957031 148.265625,324.929688 C171.96875,361.921875 212.246094,384 256,384 C326.59375,384 384,326.59375 384,256 C384,185.40625 326.59375,128 256,128 C185.40625,128 128,185.40625 128,256 C128,259.308594 128.257812,262.550781 128.511719,265.792969 L107.242188,267.476562 C106.945312,263.617188 106.667969,259.863281 106.667969,256 C106.667969,173.675781 173.652344,106.667969 256,106.667969 C338.347656,106.667969 405.332031,173.675781 405.332031,256 C405.332031,338.324219 338.347656,405.332031 256,405.332031 L256,405.332031 Z" id="Shape"></path>
                <path d="M138.667969,405.332031 C132.777344,405.332031 128,400.554688 128,394.667969 L128,330.667969 C128,324.777344 132.777344,320 138.667969,320 L202.667969,320 C208.554688,320 213.332031,324.777344 213.332031,330.667969 C213.332031,336.554688 208.554688,341.332031 202.667969,341.332031 L149.332031,341.332031 L149.332031,394.667969 C149.332031,400.554688 144.554688,405.332031 138.667969,405.332031 Z" id="Shape"></path>
            </g>
        </g>
    </g>
</svg>