<?xml version="1.0" encoding="UTF-8"?>
<svg width="83px" height="82px" viewBox="0 0 83 82" version="1.1" xmlns="http://www.w3.org/2000/svg" xmlns:xlink="http://www.w3.org/1999/xlink">
    <!-- Generator: Sketch 52.5 (67469) - http://www.bohemiancoding.com/sketch -->
    <title>tag</title>
    <desc>Created with Sketch.</desc>
    <g id="Page-1" stroke="none" stroke-width="1" fill="none" fill-rule="evenodd">
        <g id="Artboard" transform="translate(-618.000000, -323.000000)" fill="#000000" fill-rule="nonzero">
            <g id="tag" transform="translate(618.000000, 323.000000)">
                <path d="M80.2318056,0.469841491 L73.2738004,7.34342821 C69.2141199,4.31484593 63.6080751,4.26542263 59.5825892,7.21830603 L53.8834587,1.42452363 C53.8777596,1.41889317 53.8726937,1.41388828 53.8669945,1.40825782 C51.9761497,-0.45981637 48.9011521,-0.479835918 46.9875107,1.41076027 L1.42549511,46.6180287 C-0.474848426,48.4954869 -0.475481622,51.5359558 1.42549511,53.4140398 L7.85538075,59.7658671 C6.41919985,63.8267074 7.45517514,68.430578 10.5953961,71.5317311 C13.7349837,74.6347612 18.3949728,75.657635 22.5053124,74.2400006 L28.9351982,80.591828 C30.8355416,82.4692864 33.9143385,82.4686606 35.8108825,80.5943304 L81.5742675,35.5759964 C83.4752442,33.6979126 83.4752442,30.6593205 81.5742675,28.7818623 C81.5685684,28.7762317 81.5635025,28.7712268 81.5578034,28.7655963 L75.6940313,23.1363496 C78.6721437,19.1862424 78.6607453,13.6452068 75.5667508,9.60876536 L82.5241225,2.73517848 C83.1573593,2.10956759 83.1573593,1.09545238 82.5241225,0.469841491 C81.8908858,-0.155769398 80.8650423,-0.155769398 80.2318056,0.469841491 Z M72.3239454,22.1015892 C72.0174588,22.4050104 71.8464849,22.8166624 71.8490179,23.2458314 C71.852184,23.6743749 72.0294903,24.08415 72.3404096,24.3825665 L79.288283,31.0534553 C79.917087,31.6815687 79.9101213,32.6900534 79.2838503,33.308157 L33.5210985,78.326491 C32.888495,78.9514763 31.8594854,78.9514763 31.227515,78.326491 L24.0377453,71.2239306 C23.7274594,70.9167556 23.3120561,70.7547223 22.8915869,70.7547223 C22.6585558,70.7547223 22.4236249,70.8041456 22.2032586,70.9061203 C19.0858341,72.3512813 15.3421386,71.6925131 12.8883462,69.2663942 C10.4326543,66.8421519 9.76585607,63.1441659 11.2286328,60.0642835 C11.5186553,59.4530617 11.3907414,58.7286042 10.9075818,58.2512632 L3.71844526,51.1487028 C3.08584173,50.5237175 3.08584173,49.5077254 3.72034501,48.8802376 L49.2829939,3.67296924 C49.9136977,3.05048637 50.9332087,3.04673278 51.567712,3.66608748 L58.3192819,10.5302902 C58.9246562,11.1458913 59.9612647,11.2059499 60.6286963,10.5471817 C63.4035397,7.80450355 67.7488101,7.51171766 70.9498217,9.63942025 L68.5720178,11.9885892 C66.7641269,11.1377584 64.5313343,11.4499382 63.0368956,12.9263799 C61.1409848,14.8000844 61.1409848,17.8486863 63.0368956,19.7217653 C64.937239,21.5992236 68.0147695,21.5998493 69.915746,19.7217653 C71.4443796,18.2115407 71.7122388,15.9962525 70.8668677,14.2514237 L73.2440383,11.9028804 C75.3812123,15.0284325 75.1348832,19.325128 72.3239454,22.1015892 Z M67.6227959,15.1910912 C68.2553994,15.8160765 68.2579324,16.8295662 67.6227959,17.4570539 C66.9895592,18.0826648 65.9630825,18.0826648 65.3298458,17.4570539 C64.6972422,16.8320686 64.6972422,15.8154509 65.3292126,15.1910912 C65.9618161,14.5673572 66.9908257,14.566106 67.6227959,15.1910912 Z" id="Shape"></path>
            </g>
        </g>
    </g>
</svg>