<?xml version="1.0" encoding="UTF-8"?>
<svg width="270px" height="325px" viewBox="0 0 270 325" version="1.1" xmlns="http://www.w3.org/2000/svg" xmlns:xlink="http://www.w3.org/1999/xlink">
    <!-- Generator: Sketch 47.1 (45422) - http://www.bohemiancoding.com/sketch -->
    <title>Group 21</title>
    <desc>Created with Sketch.</desc>
    <defs></defs>
    <g id="Page-1" stroke="none" stroke-width="1" fill="none" fill-rule="evenodd">
        <g id="Group-20" fill-rule="nonzero" fill="#42485E">
            <g id="Group-21">
                <path d="M231.857869,38.9376986 L179.885573,38.9376986 C177.29298,17.0547376 158.165508,0 134.999654,0 C111.834492,0 92.7097886,17.0540639 90.117195,38.9376986 L38.142131,38.9376986 C17.1093179,38.9376986 0,55.5963157 0,76.0686028 L0,77.9737537 C0,93.618491 10.0077156,107.009114 24.1057216,112.465202 L24.1057216,287.869096 C24.1057216,308.342057 41.2171158,325 62.2485447,325 L207.752147,325 C228.784268,325 245.894278,308.340709 245.894278,287.869096 L245.894278,112.465876 C259.991592,107.009114 270,93.618491 270,77.9744273 L270,76.0692765 C270,55.5963157 252.889298,38.9376986 231.857869,38.9376986 Z M135.492074,17.6204819 C148.716769,17.6204819 159.755294,26.9022473 162.197802,39.1566265 L108.791209,39.1566265 C111.233022,26.9015671 122.272242,17.6204819 135.492074,17.6204819 Z M228.461538,287.89969 C228.461538,298.640181 219.44847,307.379518 208.374181,307.379518 L62.61483,307.379518 C51.5405415,307.379518 42.5274725,298.639509 42.5274725,287.89969 L42.5274725,115.512048 L228.461538,115.512048 L228.461538,287.89969 Z M253.186119,78.2907392 C253.186119,89.0979449 244.166714,97.8915663 233.084641,97.8915663 L38.8926874,97.8915663 C27.8106138,97.8915663 18.7912088,89.0979449 18.7912088,78.2907392 L18.7912088,76.3779355 C18.7912088,65.5707298 27.8106138,56.7771084 38.8926874,56.7771084 L233.085335,56.7771084 C244.167408,56.7771084 253.186813,65.5707298 253.186813,76.3779355 L253.186813,78.2907392 L253.186119,78.2907392 Z" id="Shape"></path>
                <path d="M87.8727273,284.864458 C93.0241738,284.864458 97.2,280.929933 97.2,276.07984 L97.2,177.159456 C97.2,172.308691 93.0234601,168.373494 87.8727273,168.373494 C82.7219944,168.373494 78.5454545,172.308691 78.5454545,177.159456 L78.5454545,276.07984 C78.5447409,280.931278 82.7212808,284.864458 87.8727273,284.864458 Z" id="Shape"></path>
                <path d="M136.96328,284.864458 C142.114529,284.864458 146.290909,280.929933 146.290909,276.07984 L146.290909,177.159456 C146.290909,172.308691 142.113102,168.373494 136.96328,168.373494 C131.812744,168.373494 127.636364,172.308691 127.636364,177.159456 L127.636364,276.07984 C127.636364,280.931278 131.81203,284.864458 136.96328,284.864458 Z" id="Shape"></path>
                <path d="M186.055259,284.864458 C191.205992,284.864458 195.381818,280.929933 195.381818,276.07984 L195.381818,177.159456 C195.381818,172.308691 191.205278,168.373494 186.055259,168.373494 C180.903099,168.373494 176.727273,172.308691 176.727273,177.159456 L176.727273,276.07984 C176.726559,280.931278 180.904526,284.864458 186.055259,284.864458 Z" id="Shape"></path>
            </g>
        </g>
    </g>
</svg>