<?xml version="1.0" encoding="UTF-8"?>
<svg width="29px" height="25px" viewBox="0 0 29 25" version="1.1" xmlns="http://www.w3.org/2000/svg" xmlns:xlink="http://www.w3.org/1999/xlink">
    <!-- Generator: Sketch 47.1 (45422) - http://www.bohemiancoding.com/sketch -->
    <title>worldwide</title>
    <desc>Created with Sketch.</desc>
    <defs></defs>
    <g id="Page-1" stroke="none" stroke-width="1" fill="none" fill-rule="evenodd">
        <g id="Page1-list-page-Copy-21" transform="translate(-19.000000, -266.000000)" fill-rule="nonzero" fill="#FFFFFF">
            <g id="sideicon3" transform="translate(0.000000, 242.000000)">
                <g id="worldwide" transform="translate(19.000000, 24.000000)">
                    <path d="M25.5568232,3.66645956 C21.5341695,-0.609741323 15.2261625,-1.21709955 10.5575105,2.22229398 C10.3009762,2.41130862 10.2371111,2.78561288 10.4149726,3.05838035 C10.5927776,3.33108774 10.9448834,3.39885904 11.2014177,3.20996457 C12.2867853,2.41034733 13.4703808,1.85345709 14.6915042,1.53214422 C14.4688241,1.82497872 14.2552434,2.15830778 14.0522315,2.53183099 C13.2426142,4.02171816 12.6410388,6.05978383 12.3126139,8.42559103 C12.2670041,8.75381321 12.4804152,9.05920464 12.7892284,9.10768995 C13.0977025,9.15569463 13.3852651,8.92930964 13.4308749,8.60102738 C13.4997136,8.10535962 13.5822861,7.62236894 13.6771229,7.15596059 L20.8141329,7.15596059 C21.1090427,8.61130122 21.2802351,10.2223716 21.313185,11.9023549 L19.7304608,11.9023549 C19.4183696,11.9023549 19.1652829,12.1713373 19.1652829,12.5031643 C19.1652829,12.8349313 19.4183696,13.1039737 19.7304608,13.1039737 L21.313185,13.1039737 C21.2802351,14.783957 21.1090427,16.3950274 20.8141329,17.850368 L18.0167849,17.850368 C17.7046937,17.850368 17.451607,18.1194105 17.451607,18.4511775 C17.451607,18.7829444 17.7046937,19.0519869 18.0167849,19.0519869 L20.5327873,19.0519869 C20.3775895,19.6312272 20.2009149,20.1780239 20.0032156,20.6848066 C19.2870787,22.5208801 18.3696255,23.6296739 17.4569197,23.7801166 C17.3167555,23.7833009 17.1765349,23.7838416 17.0363143,23.781198 C15.4415518,23.5261544 13.929814,20.3713042 13.3892213,16.091138 C13.3476807,15.7621949 13.0633397,15.531424 12.7538483,15.5756436 C12.4444699,15.619803 12.2273851,15.9222505 12.2689257,16.2510735 C12.5780215,18.6982904 13.1753015,20.8141008 13.9962224,22.3697766 C14.2119508,22.7786274 14.4400001,23.1410356 14.6783921,23.4570013 C13.3423681,23.1091927 12.0560232,22.4822481 10.9030603,21.5682367 C10.6527995,21.3700297 10.298772,21.4247034 10.1121503,21.6907418 C9.92552856,21.9567201 9.9771293,22.3331272 10.2273901,22.5315145 C12.2533268,24.137478 14.7180111,24.9995794 17.243565,25 C17.2438476,25 17.2441302,25 17.2444128,25 C17.2444693,25 17.2445823,25 17.2446954,25 C17.2449214,25 17.2451475,25 17.2454301,25 C17.5133244,25 17.78201,24.9902669 18.0508651,24.9707406 C20.8822368,24.7649634 23.5479549,23.4754461 25.5569928,21.3397489 C27.7772376,18.979349 29,15.8411412 29,12.5031042 C29,9.16506725 27.7772376,6.02685947 25.5568232,3.66645956 Z M27.854554,11.9022948 L22.4437103,11.9022948 C22.4121734,10.2354092 22.2491761,8.62758316 21.9678871,7.15590051 L26.6088454,7.15590051 C27.344933,8.60811693 27.7722075,10.2211099 27.854554,11.9022948 Z M13.9585815,5.9542817 C14.250722,4.86195011 14.61464,3.89903288 15.0310066,3.13288072 C15.7055464,1.8915484 16.4915393,1.20788738 17.2442432,1.20788738 C18.2257312,1.20788738 19.2312957,2.34275627 20.0031026,4.32146197 C20.2008018,4.82824471 20.3774764,5.37504135 20.5326743,5.9542817 L13.9585815,5.9542817 Z M21.0473253,3.86124197 C20.6806944,2.92127565 20.2595238,2.14136495 19.7974344,1.53436721 C21.6236372,2.01549538 23.3461864,3.01584305 24.7575486,4.5161843 C25.1805278,4.96583006 25.5629271,5.4470784 25.903899,5.9542817 L21.7045142,5.9542817 C21.518062,5.20681471 21.2984338,4.50494916 21.0473253,3.86124197 Z M24.7574921,20.4899641 C23.3590724,21.9766069 21.6398578,22.9678223 19.8159157,23.4475085 C20.2707709,22.8440555 20.6855549,22.0723158 21.0473253,21.1449064 C21.2984338,20.5011392 21.518062,19.7993337 21.7045142,19.0518667 L25.903899,19.0518667 C25.5629837,19.5591301 25.1805843,20.0403784 24.7574921,20.4899641 Z M21.9679436,17.850308 C22.2492326,16.3786253 22.4122299,14.7707993 22.4437668,13.1039136 L27.8546105,13.1039136 C27.7722641,14.7850985 27.3450461,16.3980915 26.6089019,17.850308 L21.9679436,17.850308 Z" id="Shape"></path>
                    <path d="M17.8817608,11.1544796 C16.9821079,10.0004168 15.5617179,9.31146027 14.0823409,9.31146027 L12.0011699,9.31146027 L9.90062307,4.34704124 C9.81171255,4.13693512 9.60293621,4 9.37134467,4 L7.20670893,4 C6.89016226,4 6.63346252,4.25218368 6.63346252,4.56328719 L6.63346252,9.31146027 L4.54151443,9.31146027 L3.07704184,7.58735082 C2.96812502,7.45914666 2.80687081,7.38501806 2.63690325,7.38501806 L0.573273528,7.38501806 C0.369083159,7.38501806 0.180313119,7.49176099 0.0776446879,7.66519711 C-0.0249664182,7.83868957 -0.025940937,8.05268237 0.0751224038,8.22701976 L1.97016036,11.4970146 L0.0751224038,14.7670094 C-0.025940937,14.9413468 -0.0249664182,15.1553959 0.0776446879,15.328832 C0.180255794,15.5023245 0.369025834,15.6090674 0.573273528,15.6090674 L2.63696058,15.6090674 C2.80692814,15.6090674 2.96812502,15.5349952 3.07704184,15.4067347 L4.54162908,13.6826252 L6.63357717,13.6826252 L6.63357717,18.4367128 C6.63357717,18.74776 6.89027691,19 7.20682358,19 L9.37145932,19 C9.60310819,19 9.8120565,18.8629522 9.90085237,18.6527334 L12.0014565,13.6826252 L14.0823983,13.6826252 L14.0823983,13.6825689 C15.5618326,13.6825689 16.9821652,12.9936123 17.8818181,11.8395495 C18.0394035,11.6374421 18.0394035,11.3565871 17.8817608,11.1544796 Z M7.78001265,5.12657439 L8.98893199,5.12657439 L10.7596328,9.31146027 L7.78001265,9.31146027 L7.78001265,5.12657439 Z M8.98876002,17.8733693 L7.78001265,17.8733693 L7.78001265,13.6791328 L10.7614099,13.6791328 L8.98876002,17.8733693 Z M14.0824556,12.5559945 L4.3623176,12.5559945 C4.32585913,12.5506996 4.28854079,12.5489534 4.25145175,12.5505306 C4.09111473,12.5580223 3.94126812,12.6311933 3.83842771,12.7522438 L2.36873859,14.4824367 L1.55937199,14.4824367 L3.12794612,11.7757291 C3.22809227,11.6029689 3.22809227,11.3910603 3.12794612,11.2183001 L1.55937199,8.51159245 L2.36873859,8.51159245 L3.83842771,10.2417854 C3.94155474,10.3632301 4.09191727,10.4364574 4.25277021,10.4435549 C4.28962996,10.4451321 4.32654703,10.4432732 4.36271887,10.4380347 L14.0823983,10.4380347 C15.0522165,10.4380347 15.9886718,10.8273788 16.6668797,11.4970146 C15.9886718,12.1666504 15.0522165,12.5559945 14.0824556,12.5559945 Z" id="Shape"></path>
                    <path d="M5.52,4 L3.48,4 C3.214944,4 3,4.22385 3,4.5 C3,4.77615 3.214896,5 3.48,5 L5.52,5 C5.785056,5 6,4.77615 6,4.5 C6,4.22385 5.785104,4 5.52,4 Z" id="Shape"></path>
                    <path d="M4.51051176,20 L1.48948824,20 C1.21919283,20 1,20.2239 1,20.5 C1,20.7761 1.21919283,21 1.48948824,21 L4.51051176,21 C4.78080717,21 5,20.7761 5,20.5 C5,20.2239 4.78080717,20 4.51051176,20 Z" id="Shape"></path>
                </g>
            </g>
        </g>
    </g>
</svg>