<?xml version="1.0" encoding="UTF-8"?>
<svg width="20px" height="19px" viewBox="0 0 20 19" version="1.1" xmlns="http://www.w3.org/2000/svg" xmlns:xlink="http://www.w3.org/1999/xlink">
    <!-- Generator: Sketch 47.1 (45422) - http://www.bohemiancoding.com/sketch -->
    <title>download-arrow (1)</title>
    <desc>Created with Sketch.</desc>
    <defs></defs>
    <g id="Page-1" stroke="none" stroke-width="1" fill="none" fill-rule="evenodd">
        <g id="Page1-list-page-Copy-12" transform="translate(-1306.000000, -100.000000)" fill-rule="nonzero" fill="#FFFFFF">
            <g id="Group-2" transform="translate(1296.000000, 90.000000)">
                <g id="Round-Btn">
                    <g id="download-arrow-(1)" transform="translate(10.000000, 10.000000)">
                        <path d="M15.1448025,9.9422745 C15.3576908,9.73425556 15.3576908,9.40676629 15.1448025,9.19874735 C14.9391063,8.99072841 14.5967587,8.99072841 14.391542,9.19874735 L10.5331799,12.9618287 L10.5331799,0.528012033 C10.5331799,0.238003649 10.2972766,0 10.0004795,0 C9.70368239,0 9.4601074,0.238003649 9.4601074,0.528012033 L9.4601074,12.9618287 L5.60941695,9.19874735 C5.39652858,8.99072841 5.05370157,8.99072841 4.84848485,9.19874735 C4.63559647,9.40676629 4.63559647,9.73425556 4.84848485,9.9422745 L9.62025316,14.6048972 C9.82594937,14.8058884 10.1682969,14.8058884 10.3811853,14.6048972 L15.1448025,9.9422745 Z M18.9269275,13.3558465 C18.9269275,13.0658381 19.1628308,12.8353307 19.4596279,12.8353307 C19.756425,12.8353307 20,13.0658381 20,13.3558465 L20,18.471988 C20,18.7619964 19.756425,19 19.4596279,19 L0.532700422,19 C0.235903337,19 0,18.7619964 0,18.471988 L0,13.3558465 C0,13.0658381 0.235903337,12.8353307 0.532700422,12.8353307 C0.829497507,12.8353307 1.0730725,13.0658381 1.0730725,13.3558465 L1.0730725,17.9514721 L18.9269275,17.9514721 L18.9269275,13.3558465 Z" id="Shape"></path>
                    </g>
                </g>
            </g>
        </g>
    </g>
</svg>