<?xml version="1.0" encoding="UTF-8"?>
<svg width="94px" height="104px" viewBox="0 0 94 104" version="1.1" xmlns="http://www.w3.org/2000/svg" xmlns:xlink="http://www.w3.org/1999/xlink">
    <!-- Generator: Sketch 47.1 (45422) - http://www.bohemiancoding.com/sketch -->
    <title>file</title>
    <desc>Created with Sketch.</desc>
    <defs></defs>
    <g id="Page-1" stroke="none" stroke-width="1" fill="none" fill-rule="evenodd">
        <g id="Page1-list-page-Copy-22" transform="translate(-647.000000, -456.000000)" fill-rule="nonzero" fill="#8C9AB9">
            <g id="file" transform="translate(647.000000, 456.000000)">
                <path d="M53.8931184,20 L65,20 L48,2 L48,14.0453277 C48,17.3081511 50.6291429,20 53.8931184,20 Z" id="Shape"></path>
                <path d="M34.9817167,67.6921251 L14.6747047,67.6921251 C13.6466919,67.6921251 12.8054466,66.8525845 12.8054466,65.824898 C12.8054466,64.798002 13.6466919,63.9576707 14.6747047,63.9576707 L36.2202386,63.9576707 C37.4112773,60.9236242 39.000384,58.3551985 40.9638172,55.7875634 L14.6747047,55.7875634 C13.6466919,55.7875634 12.8054466,54.9480227 12.8054466,53.9203363 C12.8054466,52.8934403 13.6466919,52.0531092 14.6747047,52.0531092 L44.5155658,52.0531092 C50.1233402,47.1510446 57.5544721,44.0237157 65.6630318,44.0237157 C66.4338434,44.0237157 67.065371,44.0932822 68,44.1636392 L68,24.9759427 L53.9789817,24.9759427 C48.5579751,24.9759427 44.1649812,20.5410805 44.1649812,15.1488888 L44.1649812,0 L8.31906896,0 C3.69182422,0 0,3.78109565 0,8.42623839 L0,79.6670438 C0,84.3121866 3.69182422,88 8.31906896,88 L36.4766483,88 C34.8645913,84.2655454 33.976654,80.063889 33.976654,75.6756678 C33.9529125,72.9214681 34.3272389,70.2597602 34.9817167,67.6921251 Z M14.6747047,40.381753 L38.3466978,40.381753 C39.3747104,40.381753 40.2159558,41.2220844 40.2159558,42.2497708 C40.2159558,43.2766668 39.3747104,44.1169981 38.3466978,44.1169981 L14.6747047,44.1169981 C13.6466919,44.1169981 12.8054466,43.2766668 12.8054466,42.2497708 C12.8054466,41.2220844 13.6466919,40.381753 14.6747047,40.381753 Z" id="Shape"></path>
                <path d="M65.4995963,48 C49.7834238,48 37,60.5585375 37,76 C37,91.4406688 49.7834238,104 65.4995963,104 C81.2165762,104 94,91.4406688 94,76 C94,60.5585375 81.2165762,48 65.4995963,48 Z M80.7400349,76.4213689 C80.382225,76.7498937 79.9048759,76.9141562 79.4517578,76.9141562 C78.9509855,76.9141562 78.4502133,76.7030749 78.0681725,76.3277313 L67.431608,65.0809125 L67.431608,91.8390251 C67.431608,92.8706249 66.5730258,93.7141562 65.5238271,93.7141562 C64.4746284,93.7141562 63.6160462,92.8706249 63.6160462,91.8390251 L63.6160462,65.0579 L52.9318277,76.3047187 C52.2162078,77.0546124 50.9755849,77.1014312 50.2123111,76.3983561 C49.4498449,75.6952813 49.4013831,74.5002125 50.1170027,73.7503188 L64.0925876,59.0119314 C64.4503976,58.6373813 64.9511698,58.4263 65.4995963,58.4263 C66.0488304,58.4263 66.5253716,58.6373813 66.9074124,59.0119314 L80.8829973,73.7503188 C81.5509629,74.5240187 81.5025011,75.7190873 80.7400349,76.4213689 Z" id="Shape"></path>
            </g>
        </g>
    </g>
</svg>