<?xml version="1.0" encoding="UTF-8"?>
<svg width="32px" height="29px" viewBox="0 0 32 29" version="1.1" xmlns="http://www.w3.org/2000/svg" xmlns:xlink="http://www.w3.org/1999/xlink">
    <!-- Generator: Sketch 47.1 (45422) - http://www.bohemiancoding.com/sketch -->
    <title>Group 11</title>
    <desc>Created with Sketch.</desc>
    <defs></defs>
    <g id="Page-1" stroke="none" stroke-width="1" fill="none" fill-rule="evenodd" fill-opacity="0.896540987">
        <g id="Group-11" fill-rule="nonzero" fill="#42485E">
            <path d="M30.8066799,13.7967368 L27.60906,11.1864407 C27.029691,10.7135433 26.2289289,11.1950917 26.2289289,12.0150418 L26.2289289,13.6115519 L10.8755909,13.6115519 C10.3920635,13.6115519 10,14.0654577 10,14.6254055 C10,15.1853532 10.3920635,15.6391914 10.8755909,15.6391914 L26.2288122,15.6391914 L26.2288122,17.235634 C26.2288122,18.0609909 27.0338352,18.5335504 27.6088849,18.064235 L30.8065047,15.4539389 C31.2948184,15.0555886 31.3046827,14.2041436 30.8066799,13.7967368 Z" id="Shape"></path>
            <path d="M26.538143,20.4785041 C26.0961807,20.2211573 25.5303654,20.3731074 25.2745834,20.8182814 C23.1023162,24.5994058 19.041676,27.1378043 14.4014111,27.1378043 C7.48031495,27.1378043 1.84953418,21.4684764 1.84953418,14.5 C1.84953418,7.53152357 7.48031495,1.86219569 14.4014111,1.86219569 C19.0447584,1.86219569 23.1035492,4.40295287 25.2745217,8.18159441 C25.5302421,8.62676849 26.0961807,8.77865652 26.5380814,8.52137173 C26.9801669,8.26390072 27.1312072,7.69427405 26.8755484,7.24916204 C24.3771577,2.90058347 19.7110001,0 14.4014111,0 C6.44171283,0 0,6.48512862 0,14.5 C0,22.5141886 6.44103469,29 14.4014111,29 C19.7132811,29 24.3782673,26.0973682 26.8756101,21.7507138 C27.1312689,21.3056018 26.9802286,20.7360372 26.538143,20.4785041 Z" id="Shape"></path>
        </g>
    </g>
</svg>