<?xml version="1.0" encoding="UTF-8"?>
<svg width="21px" height="18px" viewBox="0 0 21 18" version="1.1" xmlns="http://www.w3.org/2000/svg" xmlns:xlink="http://www.w3.org/1999/xlink">
    <!-- Generator: Sketch 47.1 (45422) - http://www.bohemiancoding.com/sketch -->
    <title>photo-camera (1)</title>
    <desc>Created with Sketch.</desc>
    <defs></defs>
    <g id="Page-1" stroke="none" stroke-width="1" fill="none" fill-rule="evenodd">
        <g id="Page1-list-page-Copy-20" transform="translate(-863.000000, -311.000000)" fill-rule="nonzero" fill="#FFFFFF">
            <g id="Group-8" transform="translate(313.000000, 90.000000)">
                <g id="Group-10" transform="translate(430.000000, 114.000000)">
                    <g id="Group-5" transform="translate(110.000000, 96.000000)">
                        <g id="photo-camera-(1)" transform="translate(10.000000, 11.000000)">
                            <path d="M18.1846253,3.43831106 L15.9807627,3.42693923 L13.8692216,0.318772896 C13.7422847,0.125210682 13.5230673,0 13.2922842,0 L7.60386956,0 C7.37308646,0 7.16539388,0.125250866 7.03849779,0.307401066 L4.85772574,3.42693923 L2.8154154,3.43831106 C1.26924598,3.43831106 0,4.69069916 0,6.21629248 L0,15.1992347 C0,16.7248682 1.26924598,18 2.81537468,18 L18.1846253,18 C19.7307947,18 21,16.7248682 21,15.1992347 L21,6.21629248 C21.0000407,4.69069916 19.7307947,3.43831106 18.1846253,3.43831106 Z M19.6154235,15.1992347 C19.6154235,15.9734434 18.9692553,16.633773 18.184666,16.633773 L2.8154154,16.633773 C2.03078543,16.633773 1.3846579,15.9734434 1.3846579,15.1992347 L1.3846579,6.21629248 C1.3846579,5.44208381 2.03082615,4.80453802 2.8154154,4.80453802 L5.22697056,4.80453802 C5.45775366,4.80453802 5.66544624,4.67928715 5.79234233,4.49713695 L7.97311438,1.37759879 L12.9231208,1.37759879 L15.0231371,4.47439329 C15.1500739,4.65654349 15.3692914,4.78179436 15.5885088,4.78179436 L18.1731411,4.8045782 C18.9577711,4.8045782 19.6038986,5.44216417 19.6038986,6.21633266 L19.6038986,15.1992749 L19.6154235,15.1992749 L19.6154235,15.1992347 Z" id="Shape"></path>
                            <path d="M10,5 C7.23531561,5 5,7.24707577 5,10.0000208 C5,12.7529657 7.24706644,15 10,15 C12.7529336,15 15,12.7529242 15,9.99997924 C15,7.24703425 12.7529336,5 10,5 Z M10,13.5882333 C8.02353488,13.5882333 6.4117608,11.9764526 6.4117608,9.99997924 C6.4117608,8.02350591 8.02353488,6.41172514 10,6.41172514 C11.9764651,6.41172514 13.5882392,8.02350591 13.5882392,9.99997924 C13.5882392,11.9764526 11.9764651,13.5882333 10,13.5882333 Z" id="Shape"></path>
                            <circle id="Oval" cx="17.5" cy="7.5" r="1"></circle>
                            <path d="M17,6 C16.4458052,6 16,6.22288132 16,6.5 C16,6.77711868 16.4457626,7 17,7 C17.5542374,7 18,6.77711868 18,6.5 C18,6.22288132 17.5541948,6 17,6 Z M17,6.72288132 C16.7469915,6.72288132 16.5542374,6.62046605 16.5542374,6.5 C16.5542374,6.37953395 16.7590679,6.27711868 17,6.27711868 C17.2409746,6.27711868 17.4457626,6.37953395 17.4457626,6.5 C17.4457626,6.62046605 17.2530085,6.72288132 17,6.72288132 Z" id="Shape"></path>
                        </g>
                    </g>
                </g>
            </g>
        </g>
    </g>
</svg>