<?xml version="1.0" encoding="UTF-8"?>
<svg width="213px" height="210px" viewBox="0 0 213 210" version="1.1" xmlns="http://www.w3.org/2000/svg" xmlns:xlink="http://www.w3.org/1999/xlink">
    <!-- Generator: Sketch 52.5 (67469) - http://www.bohemiancoding.com/sketch -->
    <title>Group</title>
    <desc>Created with Sketch.</desc>
    <g id="Page-1" stroke="none" stroke-width="1" fill="none" fill-rule="evenodd">
        <g id="Artboard" transform="translate(-411.000000, -229.000000)" fill="#000000">
            <g id="Group" transform="translate(407.000000, 222.000000)">
                <g id="reload-(1)">
                    <path d="M215.501078,99.3073352 C215.18133,47.628317 167.972456,5.3245642 110.264416,5.00512335 C52.556376,4.68568251 5.86684219,46.469664 6.1865895,98.1486821 C6.20558334,101.218555 9.00033738,103.722902 12.4283774,103.741878 C15.8564175,103.760854 18.6203697,101.286862 18.6013784,98.2174037 C18.3195598,52.6686007 59.4701412,15.8416572 110.332743,16.1232053 C161.195345,16.4047535 202.804473,53.6902248 203.086289,99.2386135 C203.368102,144.786588 162.217523,181.613946 111.354922,181.332398 L100.585444,181.272784 L115.889049,165.92165 C118.159166,163.645046 117.915795,160.129356 115.346798,158.06959 C112.777802,156.009825 108.854068,156.186983 106.584414,158.46359 L84.7081937,180.407613 C81.1271453,183.999915 81.1608518,189.447706 84.7865994,193.079901 L106.935871,215.267626 C108.17006,216.504188 109.872451,217.139249 111.578837,217.148694 C113.050641,217.156841 114.525573,216.698471 115.703731,215.758664 C118.247877,213.727202 118.447296,210.213963 116.148852,207.91207 L100.654231,192.390454 L111.423709,192.450068 C169.132211,192.769511 215.82082,150.985525 215.501078,99.3073352 Z" id="Path" transform="translate(110.843834, 111.076052) rotate(-93.000000) translate(-110.843834, -111.076052) "></path>
                </g>
                <path d="M105.531491,106.049993 L105.531491,74.7280574 C108.661525,75.887341 111.392502,78.0144017 113.291384,80.8909382 C114.972167,83.4356879 118.402482,84.1402423 120.95329,82.4647583 C123.504888,80.7892743 124.211338,77.3681662 122.530555,74.8234165 C118.556573,68.8055446 112.433212,64.7200747 105.531491,63.2802303 L105.531491,54.5166453 C105.531491,51.4698809 103.054964,49 100,49 C96.9450363,49 94.4685085,51.4698809 94.4685085,54.5166453 L94.4685085,63.2636804 C82.2257375,65.8092181 73,76.6525785 73,89.6064496 C73,102.560321 82.2265277,113.405257 94.4685085,115.950795 L94.4685085,147.272731 C91.3384746,146.113447 88.6074982,143.986386 86.7086162,141.10985 C85.0278331,138.5651 81.5975181,137.859758 79.0467104,139.53603 C76.4951124,141.211514 75.7886619,144.632622 77.4694451,147.177372 C81.4434266,153.195243 87.5667876,157.280713 94.4685085,158.720558 L94.4685085,167.483355 C94.4685085,170.530119 96.9450363,173 100,173 C103.054964,173 105.531491,170.530119 105.531491,167.483355 L105.531491,158.737108 C117.774262,156.19157 127,145.34821 127,132.394338 C127,119.440467 117.774262,108.595531 105.531491,106.049993 Z M84.1521739,89.4600939 C84.1521739,82.6542025 88.5602317,76.85429 94.7173913,74.6150235 L94.7173913,104.305164 C88.5602317,102.065898 84.1521739,96.2659853 84.1521739,89.4600939 Z M105.869565,147.384977 L105.869565,117.694836 C112.026725,119.934102 116.434783,125.734015 116.434783,132.539906 C116.434783,139.345798 112.027527,145.14571 105.869565,147.384977 Z" id="Shape" fill-rule="nonzero"></path>
            </g>
        </g>
    </g>
</svg>