<?xml version="1.0" encoding="UTF-8"?>
<svg width="50px" height="50px" viewBox="0 0 50 50" version="1.1" xmlns="http://www.w3.org/2000/svg" xmlns:xlink="http://www.w3.org/1999/xlink">
    <!-- Generator: Sketch 47.1 (45422) - http://www.bohemiancoding.com/sketch -->
    <title>Group 2</title>
    <desc>Created with Sketch.</desc>
    <defs></defs>
    <g id="Page-1" stroke="none" stroke-width="1" fill="none" fill-rule="evenodd">
        <g id="Page1-list-page-Copy-22" transform="translate(-747.000000, -89.000000)" fill-rule="nonzero" fill="#FFFFFF">
            <g id="Group-2" transform="translate(747.000000, 89.000000)">
                <g id="lock-copy" transform="translate(17.000000, 13.000000)">
                    <path d="M17.4999844,8.25 L15.9999844,8.25 L15.9999844,6.41665234 C15.9999844,2.87847656 12.859875,0 9,0 C5.140125,0 2.00001563,2.87847656 2.00001563,6.41665234 L2.00001563,8.25 L0.500015625,8.25 C0.223640625,8.25 0,8.45500391 0,8.70834766 L0,20.1666953 C0,21.177793 0.896953125,22 2.00001563,22 L16.0000313,22 C17.1030469,22 18,21.177793 18,20.1666523 L18,8.70834766 C18,8.45500391 17.7763594,8.25 17.4999844,8.25 Z M10.4970938,17.8244258 C10.5127031,17.9537617 10.4673281,18.0835703 10.3725938,18.1807227 C10.2778594,18.277832 10.1421094,18.3333477 10.0000313,18.3333477 L8.00001562,18.3333477 C7.8579375,18.3333477 7.7221875,18.277832 7.62745312,18.1807227 C7.53271875,18.0836133 7.48729687,17.9538047 7.50295312,17.8244258 L7.818375,15.2243867 C7.30617187,14.8828711 7.00003125,14.342625 7.00003125,13.75 C7.00003125,12.7389023 7.89698437,11.9166523 9.00004688,11.9166523 C10.1031094,11.9166523 11.0000625,12.7388594 11.0000625,13.75 C11.0000625,14.342625 10.6939219,14.8828711 10.1817188,15.2243867 L10.4970938,17.8244258 Z M12.9999844,8.25 L5.00001563,8.25 L5.00001563,6.41665234 C5.00001563,4.39488672 6.7944375,2.75 9,2.75 C11.2055625,2.75 12.9999844,4.39488672 12.9999844,6.41665234 L12.9999844,8.25 L12.9999844,8.25 Z" id="Shape"></path>
                </g>
                <path d="M3.95707452,38.4642549 C3.42475604,37.6356954 3.66410322,36.5285516 4.49593246,36.0001569 C5.32841561,35.4645687 6.43228963,35.7071856 6.96395404,36.5396689 C10.9321457,42.7326114 17.6750635,46.4287583 25,46.4287583 C36.8182532,46.4287583 46.4287583,36.8182532 46.4287583,25 C46.4287583,13.1817468 36.8182532,3.57124169 25,3.57124169 C13.1817468,3.57124169 3.57124169,13.1817468 3.57124169,25 C3.57124169,25.5538989 3.61440256,26.0966805 3.65690968,26.6394622 L0.0961312513,26.9213162 C0.0464305947,26.27521 0,25.6467603 0,25 C0,11.2179235 11.2139999,0 25,0 C38.7860001,0 50,11.2179235 50,25 C50,38.7820765 38.7860001,50 25,50 C16.4534778,50 8.58575947,45.6858668 3.95707452,38.4642549 Z" id="Shape-Copy-3"></path>
                <path d="M5.75024038,50 C4.78379496,50 4,49.2162052 4,48.2504006 L4,37.7502404 C4,36.783795 4.78379496,36 5.75024038,36 L16.2504006,36 C17.2162052,36 18,36.783795 18,37.7502404 C18,38.716045 17.2162052,39.4998397 16.2504006,39.4998397 L7.49983975,39.4998397 L7.49983975,48.2504006 C7.49983975,49.2162052 6.71604495,50 5.75024038,50 Z" id="Shape-Copy-4"></path>
            </g>
        </g>
    </g>
</svg>