<?xml version="1.0" encoding="UTF-8"?>
<svg width="513px" height="513px" viewBox="0 0 513 513" version="1.1" xmlns="http://www.w3.org/2000/svg" xmlns:xlink="http://www.w3.org/1999/xlink">
    <!-- Generator: Sketch 52.5 (67469) - http://www.bohemiancoding.com/sketch -->
    <title>Group 22</title>
    <desc>Created with Sketch.</desc>
    <g id="Page-1" stroke="none" stroke-width="1" fill="none" fill-rule="evenodd">
        <g id="Group-22" fill="#42485E" fill-rule="nonzero">
            <path d="M256,123.259259 C182.802963,123.259259 123.259259,182.802963 123.259259,256 C123.259259,329.197037 182.802963,388.740741 256,388.740741 C329.197037,388.740741 388.740741,329.197037 388.740741,256 C388.740741,182.802963 329.197037,123.259259 256,123.259259 Z M256,369.777778 C193.261037,369.777778 142.222222,318.738963 142.222222,256 C142.222222,193.261037 193.261037,142.222222 256,142.222222 C318.738963,142.222222 369.777778,193.261037 369.777778,256 C369.777778,318.738963 318.738963,369.777778 256,369.777778 Z" id="Shape"></path>
            <path d="M485.641481,199.111111 L466.507852,199.111111 C461.624889,180.982519 454.447407,163.631407 445.079704,147.370667 L458.600296,133.850074 C463.578074,128.872296 466.318222,122.244741 466.318222,115.209481 C466.318222,108.164741 463.578074,101.546667 458.600296,96.5594074 L415.431111,53.3902222 C405.475556,43.4441481 388.114963,43.4251852 378.140444,53.3902222 L364.619852,66.9108148 C348.34963,57.5525926 331.008,50.3751111 312.888889,45.4921481 L312.888889,26.3585185 C312.888889,11.8234074 301.065481,-6.25277607e-13 286.53037,-6.25277607e-13 L225.46963,-6.25277607e-13 C210.934519,-6.25277607e-13 199.111111,11.8234074 199.111111,26.3585185 L199.111111,45.4921481 C180.992,50.3751111 163.65037,57.5525926 147.370667,66.9202963 L133.850074,53.3997037 C123.885037,43.4251852 106.514963,43.4441481 96.5594074,53.3997037 L53.3902222,96.5688889 C48.4124444,101.546667 45.6722963,108.174222 45.6722963,115.218963 C45.6722963,122.254222 48.4124444,128.872296 53.3902222,133.859556 L66.9108148,147.380148 C57.5525926,163.631407 50.3656296,180.982519 45.4921481,199.111111 L26.3585185,199.111111 C11.8234074,199.111111 -6.25277607e-13,210.934519 -6.25277607e-13,225.46963 L-6.25277607e-13,286.520889 C-6.25277607e-13,301.065481 11.8234074,312.888889 26.3585185,312.888889 L45.4921481,312.888889 C50.3751111,331.008 57.5525926,348.34963 66.9202963,364.629333 L53.3997037,378.149926 C48.4219259,383.127704 45.6817778,389.755259 45.6817778,396.790519 C45.6817778,403.835259 48.4219259,410.453333 53.3997037,415.440593 L96.5688889,458.609778 C106.524444,468.574815 123.894519,468.584296 133.859556,458.609778 L147.380148,445.089185 C163.659852,454.447407 181.001481,461.63437 199.120593,466.517333 L199.120593,485.650963 C199.120593,500.186074 210.944,512.009481 225.479111,512.009481 L286.53037,512.009481 C301.065481,512.009481 312.888889,500.186074 312.888889,485.650963 L312.888889,466.517333 C331.008,461.63437 348.34963,454.456889 364.629333,445.089185 L378.149926,458.609778 C388.124444,468.584296 405.475556,468.565333 415.440593,458.609778 L458.609778,415.440593 C463.587556,410.462815 466.327704,403.835259 466.327704,396.790519 C466.327704,389.755259 463.587556,383.137185 458.609778,378.149926 L445.089185,364.629333 C454.447407,348.34963 461.63437,331.008 466.517333,312.888889 L485.650963,312.888889 C500.186074,312.888889 512.009481,301.065481 512.009481,286.53037 L512.009481,225.46963 C512,210.934519 500.176593,199.111111 485.641481,199.111111 Z M493.037037,286.53037 C493.037037,290.607407 489.718519,293.925926 485.641481,293.925926 L451.584,293.925926 L449.877333,301.255111 C444.937481,322.465185 436.612741,342.59437 425.102222,361.092741 L421.12,367.483259 L445.193481,391.556741 C448.085333,394.448593 448.085333,399.141926 445.193481,402.024296 L402.024296,445.193481 C399.141926,448.075852 394.448593,448.094815 391.556741,445.193481 L367.483259,421.12 L361.092741,425.102222 C342.603852,436.612741 322.474667,444.946963 301.255111,449.877333 L293.925926,451.584 L293.925926,485.641481 C293.925926,489.718519 290.607407,493.037037 286.53037,493.037037 L225.46963,493.037037 C221.392593,493.037037 218.074074,489.718519 218.074074,485.641481 L218.074074,451.584 L210.744889,449.877333 C189.534815,444.937481 169.40563,436.612741 150.907259,425.102222 L144.516741,421.12 L120.443259,445.193481 C117.541926,448.094815 112.848593,448.075852 109.975704,445.193481 L66.8065185,402.024296 C63.9146667,399.132444 63.9146667,394.439111 66.8065185,391.556741 L90.88,367.483259 L86.8977778,361.092741 C75.3872593,342.603852 67.053037,322.474667 62.1226667,301.255111 L60.416,293.925926 L26.3585185,293.925926 C22.2814815,293.925926 18.962963,290.607407 18.962963,286.53037 L18.962963,225.46963 C18.962963,221.392593 22.2814815,218.074074 26.3585185,218.074074 L60.416,218.074074 L62.1226667,210.744889 C67.0625185,189.525333 75.3872593,169.396148 86.8977778,150.907259 L90.88,144.516741 L66.8065185,120.443259 C63.9146667,117.551407 63.9146667,112.858074 66.8065185,109.975704 L109.975704,66.8065185 C112.858074,63.9241481 117.551407,63.9051852 120.443259,66.8065185 L144.516741,90.88 L150.907259,86.8977778 C169.396148,75.3872593 189.525333,67.053037 210.744889,62.1226667 L218.074074,60.416 L218.074074,26.3585185 C218.074074,22.2814815 221.392593,18.962963 225.46963,18.962963 L286.520889,18.962963 C290.607407,18.962963 293.925926,22.2814815 293.925926,26.3585185 L293.925926,60.416 L301.255111,62.1226667 C322.465185,67.0625185 342.59437,75.3872593 361.092741,86.8977778 L367.483259,90.88 L391.556741,66.8065185 C394.458074,63.9051852 399.151407,63.9241481 402.024296,66.8065185 L445.193481,109.975704 C448.085333,112.867556 448.085333,117.560889 445.193481,120.443259 L421.12,144.516741 L425.102222,150.907259 C436.612741,169.386667 444.946963,189.515852 449.877333,210.744889 L451.584,218.074074 L485.641481,218.074074 C489.718519,218.074074 493.037037,221.392593 493.037037,225.46963 L493.037037,286.53037 Z" id="Shape"></path>
            <path d="M256,161.185185 C203.719111,161.185185 161.185185,203.719111 161.185185,256 C161.185185,308.280889 203.719111,350.814815 256,350.814815 C308.280889,350.814815 350.814815,308.280889 350.814815,256 C350.814815,203.719111 308.280889,161.185185 256,161.185185 Z M256,331.851852 C214.177185,331.851852 180.148148,297.822815 180.148148,256 C180.148148,214.177185 214.177185,180.148148 256,180.148148 C297.822815,180.148148 331.851852,214.177185 331.851852,256 C331.851852,297.822815 297.822815,331.851852 256,331.851852 Z" id="Shape"></path>
        </g>
    </g>
</svg>