<?xml version="1.0" encoding="UTF-8"?>
<svg width="25px" height="26px" viewBox="0 0 25 26" version="1.1" xmlns="http://www.w3.org/2000/svg" xmlns:xlink="http://www.w3.org/1999/xlink">
    <!-- Generator: Sketch 47.1 (45422) - http://www.bohemiancoding.com/sketch -->
    <title>team</title>
    <desc>Created with Sketch.</desc>
    <defs></defs>
    <g id="Page-1" stroke="none" stroke-width="1" fill="none" fill-rule="evenodd">
        <g id="Page1-list-page-Copy-21" transform="translate(-21.000000, -194.000000)" fill-rule="nonzero" fill="#FFFFFF">
            <g id="sideicon2" transform="translate(0.000000, 171.000000)">
                <g id="team" transform="translate(21.000000, 23.000000)">
                    <path d="M22.211377,21.8563008 L21.8006348,21.6850156 C23.8662109,19.2953516 25,16.2259297 25,13 C25,10.3608477 24.2328125,7.82148047 22.8350098,5.68678906 C22.8180664,5.65210547 22.7970703,5.620875 22.7726562,5.59360547 C22.1603027,4.67573437 21.4313477,3.83388281 20.5948242,3.09384766 C20.4287598,2.9469375 20.1796875,2.96785937 20.0384277,3.14056641 C19.897168,3.31327344 19.9172852,3.57241016 20.0833008,3.71926953 C20.7543945,4.31295312 21.351709,4.9765625 21.869873,5.69476172 C21.0343262,6.03438672 20.0313965,6.32201172 18.9117676,6.54925781 C18.6026855,5.59152344 18.2228027,4.69858594 17.7762207,3.89294141 C17.1743164,2.80698437 16.4819824,1.93253125 15.7274414,1.28938672 C16.9018066,1.63855859 18.0205078,2.17958203 19.0471191,2.90082812 C19.2277832,3.02762891 19.4730957,2.97832031 19.595166,2.79042969 C19.7171875,2.60258984 19.6696777,2.34741406 19.4890137,2.22046094 C17.4216797,0.7678125 15.0048828,0 12.5,0 C9.16108398,0 6.02211914,1.35220312 3.66123047,3.80767969 C1.30019531,6.26300391 0,9.52762891 0,13 C0,16.2300937 1.13535156,19.2999219 3.20429687,21.6904492 L2.79873047,21.8556406 C2.64936523,21.9117539 1.37929687,22.4386094 1.37929687,24.1180977 L1.37929687,25.5890781 C1.37929687,25.8158672 1.55595703,26 1.77402344,26 L4.04472656,26 L4.39819336,26 L4.81923828,26 L6.83886719,26 L7.58427734,26 C7.60332031,26 7.62192383,25.9981211 7.64023437,25.9953789 C7.65859375,25.9981211 7.67714844,26 7.69619141,26 L9.30234375,26 C9.52041016,26 9.69707031,25.8162734 9.69707031,25.5894844 C9.69707031,25.3626953 9.52036133,25.1789687 9.30234375,25.1789687 L8.09091797,25.1789687 L8.09091797,23.7492227 C8.09091797,22.2408164 9.23017578,21.8069414 9.27617187,21.790082 C9.28227539,21.7879492 9.28833008,21.7856641 9.29438477,21.7831758 L11.2166504,21.0002305 C11.2208008,21.0049023 11.224707,21.0097773 11.2291016,21.0142461 L12.2506836,22.0490664 C12.3244629,22.1237148 12.4233398,22.1655078 12.526123,22.1655078 C12.5281738,22.1655078 12.5302734,22.1655078 12.5323242,22.165457 C12.6373535,22.1637812 12.7375,22.1185352 12.8103027,22.0398242 L13.7912109,20.9813398 L15.7108887,21.781957 C15.7178711,21.7849023 15.7224609,21.7867305 15.7295898,21.789168 C15.7780762,21.8068906 16.9174805,22.240918 16.9174805,23.7492227 L16.9174805,25.1789687 L14.0302734,25.1789687 L10.9779785,25.1789687 L10.5360352,25.1789687 C10.3179687,25.1789687 10.1413086,25.3627461 10.1413086,25.5894844 C10.1413086,25.8162734 10.3180176,26 10.5360352,26 L10.9779785,26 L14.0302734,26 L17.3122559,26 L17.3123047,26 L17.3123535,26 L17.8159668,26 L18.1693848,26 L18.5905273,26 L20.6100586,26 L23.2343262,26 C23.4523926,26 23.6290527,25.8133281 23.6290527,25.5865898 L23.6290527,24.1180977 C23.6291504,22.4450586 22.3686523,21.9157656 22.211377,21.8563008 Z M21.0169922,21.3581875 L20.6278809,21.1958906 L20.6278809,20.9622969 C21.0579102,20.7000117 21.3884277,20.2798984 21.545459,19.7787891 C22.1197266,19.7316133 22.5733398,19.2315703 22.5733398,18.6224492 C22.5733398,18.2601758 22.412793,17.9363945 22.1620605,17.7232148 L22.1620605,16.9935898 C22.1620605,15.5868477 21.1470215,14.4227891 19.8388184,14.2500312 C19.8537109,13.9716992 19.8640137,13.6912852 19.8689941,13.4105156 L24.2032227,13.4105156 C24.1083496,16.382082 22.9859863,19.1889141 21.0169922,21.3581875 Z M19.5918945,20.4340195 L19.2318848,20.4340195 C18.534375,20.4340195 17.9669434,19.8438906 17.9669434,19.118582 L17.9669434,18.0323711 L17.9669434,18.0323711 C18.4811523,17.9743281 19.3919434,17.7874023 20.0936523,17.1779258 C20.2508301,17.4582891 20.494043,17.7615039 20.8568359,17.9385781 L20.8568359,19.1185312 C20.8567871,19.8438906 20.2893555,20.4340195 19.5918945,20.4340195 Z M19.8384766,21.2391055 L19.8384766,21.466707 L19.3986328,21.9413086 L18.9853516,21.5227187 L18.9853516,21.2390547 C19.0662598,21.2491602 19.1484375,21.255 19.2319336,21.255 L19.5919434,21.255 C19.6754395,21.2550508 19.7575195,21.2492109 19.8384766,21.2391055 Z M17.5734863,17.238 C17.5730469,17.238 17.5726074,17.238 17.572168,17.238 C17.5585938,17.238 17.5451172,17.2387617 17.5318848,17.2401328 C17.5276367,17.2405898 17.5234863,17.2415039 17.5192383,17.2421133 C17.5103516,17.243332 17.5014648,17.2444492 17.4927734,17.2463281 C17.4868164,17.2475469 17.4811035,17.2494258 17.4752441,17.251 C17.468457,17.2527773 17.4616211,17.2543008 17.4550293,17.2564336 C17.4507324,17.2578047 17.4466797,17.2596836 17.4424316,17.261207 L17.4424316,16.9936406 C17.4424316,15.9208359 18.2816406,15.0481094 19.3131836,15.0481094 L19.5019531,15.0481094 C20.5334473,15.0481094 21.3725098,15.9208359 21.3725098,16.9936406 L21.3725098,17.2578555 C21.3650879,17.2553672 21.3575684,17.2534375 21.3499512,17.251457 C21.3463379,17.2503906 21.3427246,17.2491719 21.3390625,17.248207 C20.7887695,17.1180547 20.6087891,16.3542539 20.6074707,16.3484648 C20.5732422,16.1911445 20.4535645,16.0692695 20.3015625,16.0369727 C20.1495605,16.0045742 19.9935547,16.0678477 19.9026367,16.1985586 C19.1878418,17.2262188 17.5943848,17.238 17.5734863,17.238 Z M21.6462402,18.8991055 L21.6462402,18.3458945 C21.7293457,18.4075937 21.7838379,18.5084961 21.7838379,18.6225508 C21.7838379,18.7366055 21.7293457,18.8374062 21.6462402,18.8991055 Z M22.3331543,6.38564062 C23.4765625,8.22270312 24.1312988,10.3613047 24.203125,12.5894336 L19.8687988,12.5894336 C19.8367676,10.7415547 19.5884766,8.95928516 19.145752,7.33616406 C20.359375,7.08545703 21.4414551,6.76507812 22.3331543,6.38564062 Z M19.079248,12.5895352 L15.0391602,12.5895352 C15.0387207,12.5894844 15.0383301,12.5895352 15.0379395,12.5895352 C14.4994141,11.9704102 13.7423828,11.5613672 12.8947266,11.4933203 L12.8947266,7.96300781 C14.8317871,7.94294922 16.7010742,7.77542187 18.3665039,7.48429297 C18.8022949,9.05404297 19.046875,10.7874102 19.079248,12.5895352 Z M15.597168,16.8763867 C15.597168,17.1178516 15.440332,17.3214336 15.2270996,17.3840469 L15.2270996,16.3685742 C15.440332,16.4312891 15.597168,16.6349219 15.597168,16.8763867 Z M12.8947266,0.843832031 C14.4655762,1.01831641 15.9435059,2.23046484 17.0922363,4.30294922 C17.4953613,5.0301875 17.8415039,5.83364844 18.1268555,6.69550781 C16.5353516,6.96652734 14.7492676,7.12252734 12.8946777,7.141875 L12.8946777,0.843832031 L12.8947266,0.843832031 Z M12.6443848,12.3032812 C13.9889648,12.3032812 15.0828125,13.4409844 15.0828125,14.8393984 L15.0828125,15.3410664 C15.0801758,15.3388828 15.0773926,15.3369531 15.074707,15.3347695 C15.0689941,15.3300977 15.0631836,15.3255273 15.0571777,15.3212109 C15.0525391,15.3178594 15.0477539,15.3147617 15.0429688,15.3116133 C15.0370605,15.3077031 15.0312012,15.3038437 15.0250488,15.3002891 C15.0194336,15.2969883 15.013623,15.2940937 15.0078613,15.2910977 C15.0023438,15.2882539 14.996875,15.2853594 14.9912109,15.2827187 C14.9842773,15.2795195 14.9770996,15.2768789 14.9700195,15.2740859 C14.9650879,15.2721562 14.9602051,15.2701758 14.9552246,15.2684492 C14.9472656,15.265707 14.9390625,15.2635234 14.9309082,15.2613398 C14.9272949,15.2602734 14.9237305,15.2590039 14.9200195,15.2580898 C14.170166,15.0807617 13.9326172,14.0639687 13.9306152,14.0551328 C13.8963867,13.8978125 13.776709,13.7759375 13.624707,13.7436406 C13.4727539,13.7111406 13.3166992,13.7745156 13.2257813,13.9052266 C12.301416,15.2342734 10.2594727,15.2478828 10.2325195,15.2478828 C10.2324707,15.2478828 10.2324219,15.2478828 10.2324219,15.2478828 C10.2318848,15.2478828 10.2314941,15.2478828 10.2310059,15.2478828 C10.2174316,15.2478828 10.2039551,15.2485937 10.1907227,15.2499648 C10.1865723,15.2504727 10.1825684,15.2513359 10.178418,15.2519453 C10.1694824,15.2532148 10.1604004,15.254332 10.1516113,15.2561602 C10.1459961,15.2573789 10.1405273,15.259207 10.1349121,15.2606289 C10.1278809,15.262457 10.1207031,15.264082 10.1138672,15.2662656 C10.1074707,15.2683477 10.1013184,15.2710391 10.0950684,15.2734258 C10.0893555,15.2756094 10.0833984,15.2775391 10.0777344,15.2799766 C10.0705078,15.2831758 10.063623,15.2869336 10.0567383,15.2904375 C10.0522461,15.2927227 10.0477051,15.2947031 10.0433105,15.2971914 C10.0361816,15.3011523 10.029541,15.3057227 10.0227051,15.3100898 C10.0187988,15.3126797 10.0146973,15.3149648 10.010791,15.3176562 C10.0044434,15.322125 9.9984375,15.3271016 9.99228516,15.3319766 C9.98833008,15.3350742 9.98422852,15.337918 9.98037109,15.3412187 C9.97675781,15.3443164 9.97338867,15.3478203 9.96982422,15.3510703 L9.96982422,14.8393477 C9.96982422,13.4409336 11.0636719,12.3032812 12.408252,12.3032812 L12.6443848,12.3032812 Z M5.92075195,12.5894844 C5.953125,10.7870547 6.19780273,9.05333203 6.63369141,7.48342969 C8.30146484,7.77496484 10.1727539,7.94284766 12.1052734,7.96305859 L12.1052734,11.4975352 C11.2777832,11.578125 10.5401367,11.9844766 10.0125488,12.5922266 C9.99819336,12.5906016 9.98359375,12.5895352 9.96879883,12.5895352 L5.92075195,12.5895352 L5.92075195,12.5894844 Z M9.8362793,16.3643594 L9.8362793,17.3884141 C9.61494141,17.3314883 9.45024414,17.1238945 9.45024414,16.8763867 C9.45019531,16.6289297 9.61494141,16.4213359 9.8362793,16.3643594 Z M12.1052734,0.843832031 L12.1052734,7.141875 C10.2550781,7.122375 8.46757812,6.96576563 6.87353516,6.69423828 C7.15883789,5.83288672 7.50483398,5.02993359 7.90776367,4.30294922 C9.05649414,2.23046484 10.5344238,1.01831641 12.1052734,0.843832031 Z M9.26821289,1.29299219 C8.51538086,1.93588281 7.82451172,2.80896484 7.22373047,3.89289062 C6.77729492,4.69833203 6.39755859,5.59086328 6.08852539,6.54834375 C4.9703125,6.32140234 3.96899414,6.0344375 3.13500977,5.69613281 C4.64682617,3.60470703 6.79038086,2.03399219 9.26821289,1.29299219 Z M2.67041016,6.38757031 C3.55986328,6.76558594 4.64213867,7.08474609 5.85458984,7.33519922 C5.41157227,8.95852344 5.16328125,10.7411992 5.13115234,12.5894844 L0.796875,12.5894844 C0.869873047,10.3091016 1.54833984,8.18558203 2.67041016,6.38757031 Z M5.21401367,21.2391562 C5.29492187,21.2492617 5.37709961,21.2550508 5.4605957,21.2550508 L5.8206543,21.2550508 C5.90405273,21.2550508 5.98623047,21.2492617 6.06708984,21.2391055 L6.06708984,21.4666562 L5.62734375,21.9412578 L5.21401367,21.522668 L5.21401367,21.2391562 L5.21401367,21.2391562 Z M5.8206543,20.4340195 L5.4605957,20.4340195 C4.76308594,20.4340195 4.1956543,19.8438906 4.1956543,19.1185312 L4.1956543,18.0328281 C4.70976562,17.9749883 5.62021484,17.7877578 6.32236328,17.1779258 C6.47958984,17.4583398 6.72275391,17.7616055 7.08549805,17.9386797 L7.08549805,19.118582 C7.08544922,19.8438906 6.51806641,20.4340195 5.8206543,20.4340195 Z M6.83632812,16.3484141 C6.80209961,16.1910937 6.68242187,16.0692187 6.53041992,16.0369219 C6.37841797,16.0045234 6.22236328,16.0677969 6.13154297,16.1985078 C5.41621094,17.2267773 3.82148437,17.2380508 3.80224609,17.2380508 C3.80175781,17.2380508 3.80136719,17.2380508 3.80092773,17.2380508 C3.78735352,17.2380508 3.77387695,17.2387617 3.76064453,17.2401328 C3.75649414,17.2406406 3.75249023,17.2415039 3.74833984,17.2421133 C3.7394043,17.243332 3.73032227,17.2445 3.7215332,17.2463281 C3.71591797,17.2475469 3.71044922,17.249375 3.70483398,17.2507969 C3.69780273,17.252625 3.69067383,17.25425 3.68378906,17.2564336 C3.67954102,17.2578047 3.67553711,17.2596836 3.67133789,17.261207 L3.67133789,16.9936406 C3.67133789,15.9208359 4.51049805,15.0480586 5.54204102,15.0480586 L5.73085937,15.0480586 C6.76235352,15.0480586 7.60141602,15.9208359 7.60141602,16.9936406 L7.60141602,17.2579062 L7.60131836,17.2579062 C7.59375,17.2553164 7.58588867,17.2533867 7.57817383,17.2513047 C7.57470703,17.2503906 7.57133789,17.2491211 7.56782227,17.2482578 C7.01762695,17.1181055 6.83764648,16.3541523 6.83632812,16.3484141 Z M0.796826172,13.4105156 L5.13105469,13.4105156 C5.13598633,13.6932656 5.14648438,13.9756602 5.16147461,14.2557695 C3.87431641,14.4482812 2.88173828,15.6024375 2.88173828,16.9935898 L2.88173828,17.7200156 C2.62856445,17.9330937 2.46621094,18.2582969 2.46621094,18.6224492 C2.46621094,19.2360898 2.92680664,19.7387734 3.50722656,19.7795 C3.66425781,20.2803047 3.99462891,20.7000625 4.42451172,20.9622969 L4.42451172,21.1935039 L3.99331055,21.3691055 C2.01767578,19.1981562 0.891748047,16.3884805 0.796826172,13.4105156 Z M3.40610352,18.3367539 L3.40610352,18.9081445 C3.31577148,18.8476133 3.25566406,18.742293 3.25566406,18.6225508 C3.25566406,18.502707 3.31577148,18.3973867 3.40610352,18.3367539 Z M7.30136719,23.7492734 L7.30136719,25.1789687 L6.83876953,25.1789687 L4.81918945,25.1789687 L4.39814453,25.1789687 L4.04472656,25.1789687 L2.16879883,25.1789687 L2.16879883,24.1180977 C2.16879883,22.9735391 3.02915039,22.6418359 3.06259766,22.6294961 C3.06870117,22.6273633 3.07480469,22.6250781 3.08081055,22.6225898 L4.56962891,22.0162109 L5.36074219,22.8175391 C5.43447266,22.8922383 5.53330078,22.9339805 5.63613281,22.9339805 C5.63818359,22.9339805 5.6402832,22.9339805 5.64238281,22.9339297 C5.74741211,22.9322539 5.84750977,22.8870078 5.9203125,22.8082969 L6.66757813,22.0017891 L7.59125977,22.3869648 C7.41611328,22.75975 7.30136719,23.2112461 7.30136719,23.7492734 Z M11.1098633,20.1619844 L9.01474609,21.0152617 C8.74794922,21.1107305 8.37871094,21.3309687 8.05117187,21.6941562 L6.85649414,21.1958906 L6.85649414,20.9623984 C7.28662109,20.7000625 7.61708984,20.2799492 7.77412109,19.7787891 C8.3484375,19.7316133 8.80209961,19.2315703 8.80209961,18.6224492 C8.80209961,18.2601758 8.64150391,17.9363945 8.39077148,17.7232148 L8.39077148,16.9935898 C8.39077148,15.5453594 7.31508789,14.3542852 5.95117188,14.2372344 C5.93613281,13.9633711 5.92573242,13.6871211 5.92070313,13.4104648 L9.48808594,13.4104648 C9.29101562,13.8442891 9.18027344,14.3284883 9.18027344,14.8392969 L9.18027344,15.7972344 C8.86499023,16.0435742 8.66064453,16.4355547 8.66064453,16.8763867 C8.66064453,17.6132227 9.23178711,18.2136602 9.9378418,18.2249336 C10.1230957,18.8756445 10.5498047,19.4193086 11.1097656,19.7432422 L11.1097656,20.1619844 L11.1098633,20.1619844 Z M7.87495117,18.8991562 L7.87495117,18.3457422 C7.95810547,18.4074922 8.01264648,18.5083945 8.01264648,18.6225 C8.01264648,18.7366055 7.95810547,18.837457 7.87495117,18.8991562 Z M13.1641113,20.4484922 C13.1641113,20.4490508 13.1641113,20.4496094 13.1641113,20.4500156 L13.1641113,20.4748984 L12.517334,21.1728867 L11.8993164,20.5468555 L11.8993164,20.0303086 C12.0318848,20.0533125 12.1678223,20.0658555 12.3066406,20.0658555 L12.7569336,20.0658555 C12.8956543,20.0658555 13.031543,20.0533125 13.1641113,20.0304102 L13.1641113,20.4484922 Z M12.7569336,19.244875 L12.3066406,19.244875 C11.3797852,19.244875 10.6257324,18.4607109 10.6257324,17.4967812 L10.6257324,16.0473828 C11.2557129,15.9870547 12.501416,15.7593008 13.4113281,14.9097812 C13.6033691,15.2877461 13.925293,15.7265469 14.4376953,15.9541484 L14.4376953,17.4967305 C14.4376465,18.4607109 13.6836914,19.244875 12.7569336,19.244875 Z M16.959668,21.6969492 C16.6321777,21.3328477 16.2625,21.1118477 15.9951172,21.0158711 L13.9535156,20.1643203 L13.9535156,19.7432422 C14.513623,19.4192578 14.9402344,18.8754414 15.1254395,18.2245273 C15.8240234,18.204418 16.3865234,17.6075859 16.3865234,16.8764375 C16.3865234,16.4381445 16.184375,16.0481445 15.872168,15.8015508 L15.872168,14.8393477 C15.872168,14.3285898 15.7614746,13.8443398 15.5643555,13.4105156 L19.0791504,13.4105156 C19.0740234,13.6882891 19.0635742,13.9656563 19.0483398,14.2408398 C17.7052734,14.3794219 16.652832,15.5610508 16.652832,16.9935898 L16.652832,17.7201172 C16.399707,17.9331445 16.2374023,18.2583477 16.2374023,18.6225 C16.2374023,19.2361914 16.697998,19.738875 17.278418,19.7795508 C17.4354492,20.2803555 17.7658691,20.7001133 18.195752,20.9623477 L18.195752,21.1935547 L16.959668,21.6969492 Z M17.1774902,18.3367539 L17.1774902,18.9081445 C17.0871094,18.8476133 17.0270508,18.742293 17.0270508,18.6225508 C17.0270508,18.502707 17.0871582,18.3973359 17.1774902,18.3367539 Z M22.8396973,25.1789687 L20.6101563,25.1789687 L18.590625,25.1789687 L18.1694824,25.1789687 L17.8160645,25.1789687 L17.7070801,25.1789687 L17.7070801,23.7492227 C17.7070801,23.2133789 17.5933594,22.7634062 17.4193359,22.3915352 L18.3410156,22.0161602 L19.1320313,22.8174883 C19.2057617,22.8921875 19.3045898,22.9339805 19.4074707,22.9339805 C19.4095215,22.9339805 19.4116211,22.9339805 19.4136719,22.9339297 C19.5187012,22.9322539 19.6187988,22.8870078 19.6916504,22.8082969 L20.4389648,22.0017891 L21.9246094,22.6213203 C21.931543,22.6242656 21.9354004,22.6257891 21.9425781,22.6283281 C21.9791992,22.6418359 22.8397461,22.9735898 22.8397461,24.1181484 L22.8397461,25.1789687 L22.8396973,25.1789687 Z" id="Shape"></path>
                </g>
            </g>
        </g>
    </g>
</svg>